<?xml version="1.0" encoding="UTF-8"?>
<svg width="93px" height="42px" viewBox="0 0 93 42" version="1.1" xmlns="http://www.w3.org/2000/svg" xmlns:xlink="http://www.w3.org/1999/xlink">
    <title>Logo/outlined</title>
    <g id="Palette" stroke="none" stroke-width="1" fill="none" fill-rule="evenodd">
        <g id="Desktop-HD" transform="translate(-190.000000, -474.000000)">
            <g id="Logo/outlined" transform="translate(191.000000, 474.000000)">
                <path d="M8.37,32.297 C8.64,32.297 8.991,32.2655 9.423,32.2025 C9.855,32.1395 10.197,32.063 10.449,31.973 C10.863,31.811 11.151,31.5455 11.313,31.1765 C11.475,30.8075 11.556,30.353 11.556,29.813 C11.556,29.147 11.466,28.7195 11.286,28.5305 C11.106,28.3415 10.872,28.256 10.584,28.274 C10.386,28.274 10.17,28.301 9.936,28.355 C9.702,28.409 9.459,28.436 9.207,28.436 C7.893,28.436 7.236,27.788 7.236,26.492 L7.236,26.492 L7.236,22.253 L9.45,22.253 C10.674,22.253 11.286,21.659 11.286,20.471 C11.286,19.301 10.674,18.716 9.45,18.716 L9.45,18.716 L7.236,18.716 L7.236,17.042 C7.236,15.422 6.435,14.612 4.833,14.612 C4.059,14.612 3.465,14.819 3.051,15.233 C2.637,15.647 2.43,16.25 2.43,17.042 L2.43,17.042 L2.43,18.716 L1.512,18.716 C0.306,18.716 -0.297,19.301 -0.297,20.471 C-0.297,21.659 0.306,22.253 1.512,22.253 L1.512,22.253 L2.43,22.253 L2.43,26.654 C2.43,28.544 2.916,29.957 3.888,30.893 C4.86,31.829 6.354,32.297 8.37,32.297 Z M19.494,32.297 C20.97,32.297 22.257,32.018 23.355,31.46 C24.453,30.902 25.3035,30.101 25.9065,29.057 C26.5095,28.013 26.811,26.78 26.811,25.358 C26.811,23.918 26.5095,22.6805 25.9065,21.6455 C25.3035,20.6105 24.453,19.814 23.355,19.256 C22.257,18.698 20.97,18.419 19.494,18.419 C18.018,18.419 16.731,18.698 15.633,19.256 C14.535,19.814 13.68,20.6105 13.068,21.6455 C12.456,22.6805 12.15,23.918 12.15,25.358 C12.15,26.78 12.456,28.013 13.068,29.057 C13.68,30.101 14.535,30.902 15.633,31.46 C16.731,32.018 18.018,32.297 19.494,32.297 Z M19.494,28.76 C18.756,28.76 18.153,28.49 17.685,27.95 C17.217,27.41 16.983,26.546 16.983,25.358 C16.983,24.152 17.217,23.2835 17.685,22.7525 C18.153,22.2215 18.756,21.956 19.494,21.956 C20.214,21.956 20.808,22.2215 21.276,22.7525 C21.744,23.2835 21.978,24.152 21.978,25.358 C21.978,26.546 21.744,27.41 21.276,27.95 C20.808,28.49 20.214,28.76 19.494,28.76 Z M40.257,32.243 C41.031,32.243 41.625,32.036 42.039,31.622 C42.453,31.208 42.66,30.605 42.66,29.813 L42.66,29.813 L42.66,24.143 C42.66,22.199 42.2775,20.759 41.5125,19.823 C40.7475,18.887 39.573,18.419 37.989,18.419 C37.071,18.419 36.2385,18.6035 35.4915,18.9725 C34.7445,19.3415 34.146,19.868 33.696,20.552 C33.57,19.166 32.796,18.473 31.374,18.473 C29.808,18.473 29.025,19.274 29.025,20.876 L29.025,20.876 L29.025,29.813 C29.025,30.605 29.2275,31.208 29.6325,31.622 C30.0375,32.036 30.627,32.243 31.401,32.243 C33.021,32.243 33.831,31.433 33.831,29.813 L33.831,29.813 L33.831,24.629 C33.831,23.855 34.047,23.2385 34.479,22.7795 C34.911,22.3205 35.487,22.091 36.207,22.091 C36.747,22.091 37.1565,22.262 37.4355,22.604 C37.7145,22.946 37.854,23.522 37.854,24.332 L37.854,24.332 L37.854,29.813 C37.854,30.605 38.061,31.208 38.475,31.622 C38.889,32.036 39.483,32.243 40.257,32.243 Z M47.763,16.556 C48.627,16.556 49.2885,16.358 49.7475,15.962 C50.2065,15.566 50.436,14.99 50.436,14.234 C50.436,12.704 49.545,11.939 47.763,11.939 C46.917,11.939 46.2645,12.137 45.8055,12.533 C45.3465,12.929 45.117,13.496 45.117,14.234 C45.117,14.99 45.3465,15.566 45.8055,15.962 C46.2645,16.358 46.917,16.556 47.763,16.556 Z M47.763,32.243 C48.555,32.243 49.158,32.018 49.572,31.568 C49.986,31.118 50.193,30.47 50.193,29.624 L50.193,29.624 L50.193,21.092 C50.193,20.246 49.9815,19.598 49.5585,19.148 C49.1355,18.698 48.537,18.473 47.763,18.473 C46.989,18.473 46.3995,18.698 45.9945,19.148 C45.5895,19.598 45.387,20.246 45.387,21.092 L45.387,21.092 L45.387,29.624 C45.387,30.47 45.5895,31.118 45.9945,31.568 C46.3995,32.018 46.989,32.243 47.763,32.243 Z M60.21,32.297 C60.93,32.297 61.6455,32.2295 62.3565,32.0945 C63.0675,31.9595 63.738,31.739 64.368,31.433 C64.872,31.199 65.2095,30.8615 65.3805,30.4205 C65.5515,29.9795 65.5695,29.5475 65.4345,29.1245 C65.2995,28.7015 65.034,28.3865 64.638,28.1795 C64.242,27.9725 63.756,27.977 63.18,28.193 C62.712,28.391 62.217,28.535 61.695,28.625 C61.173,28.715 60.723,28.76 60.345,28.76 C59.355,28.76 58.581,28.571 58.023,28.193 C57.465,27.815 57.105,27.194 56.943,26.33 L56.943,26.33 L64.638,26.33 C65.466,26.33 65.88,25.979 65.88,25.277 C65.88,23.891 65.6145,22.6805 65.0835,21.6455 C64.5525,20.6105 63.7965,19.814 62.8155,19.256 C61.8345,18.698 60.678,18.419 59.346,18.419 C57.996,18.419 56.7945,18.7115 55.7415,19.2965 C54.6885,19.8815 53.8605,20.696 53.2575,21.74 C52.6545,22.784 52.353,23.981 52.353,25.331 C52.353,26.753 52.668,27.986 53.298,29.03 C53.928,30.074 54.8325,30.8795 56.0115,31.4465 C57.1905,32.0135 58.59,32.297 60.21,32.297 Z M61.938,24.062 L56.916,24.062 C57.042,23.234 57.3345,22.604 57.7935,22.172 C58.2525,21.74 58.842,21.524 59.562,21.524 C60.282,21.524 60.8445,21.7355 61.2495,22.1585 C61.6545,22.5815 61.884,23.216 61.938,24.062 L61.938,24.062 Z M71.388,32.243 C72.99,32.243 73.791,31.433 73.791,29.813 L73.791,29.813 L73.791,22.253 L75.33,22.253 C76.536,22.253 77.139,21.659 77.139,20.471 C77.139,19.301 76.536,18.716 75.33,18.716 L75.33,18.716 L73.791,18.716 L73.791,18.311 C73.791,17.681 73.971,17.1995 74.331,16.8665 C74.691,16.5335 75.33,16.34 76.248,16.286 L76.248,16.286 L76.626,16.259 C76.986,16.223 77.274,16.079 77.49,15.827 C77.706,15.575 77.8455,15.2735 77.9085,14.9225 C77.9715,14.5715 77.94,14.225 77.814,13.883 C77.688,13.541 77.454,13.2665 77.112,13.0595 C76.77,12.8525 76.311,12.785 75.735,12.857 L75.735,12.857 L74.952,12.938 C73.044,13.136 71.595,13.694 70.605,14.612 C69.615,15.53 69.075,16.898 68.985,18.716 L68.985,18.716 L68.283,18.716 C67.077,18.716 66.474,19.301 66.474,20.471 C66.474,21.659 67.077,22.253 68.283,22.253 L68.283,22.253 L68.985,22.253 L68.985,29.813 C68.985,30.605 69.192,31.208 69.606,31.622 C70.02,32.036 70.614,32.243 71.388,32.243 Z M82.215,37.103 C82.809,37.103 83.2995,36.977 83.6865,36.725 C84.0735,36.473 84.429,35.996 84.753,35.294 L84.753,35.294 L90.882,21.524 C91.242,20.714 91.2555,20.003 90.9225,19.391 C90.5895,18.779 90.027,18.473 89.235,18.473 C88.605,18.473 88.1055,18.6035 87.7365,18.8645 C87.3675,19.1255 87.039,19.625 86.751,20.363 L86.751,20.363 L84.375,26.249 L82.107,20.39 C81.819,19.634 81.495,19.1255 81.135,18.8645 C80.775,18.6035 80.316,18.473 79.758,18.473 C78.714,18.473 78.012,18.779 77.652,19.391 C77.292,20.003 77.292,20.714 77.652,21.524 L77.652,21.524 L81.837,31.082 L80.46,34.052 C80.226,34.592 80.145,35.0915 80.217,35.5505 C80.289,36.0095 80.5005,36.383 80.8515,36.671 C81.2025,36.959 81.657,37.103 82.215,37.103 Z" id="toniefy" fill="#FA4C4C" fill-rule="nonzero"></path>
                <rect id="Rectangle" fill="#F74646" x="38" y="8" width="4" height="8" rx="1.5"></rect>
                <rect id="Rectangle" fill="#F74646" x="46" y="0" width="4" height="10" rx="1.5"></rect>
                <rect id="Rectangle" fill="#F74646" x="53" y="4" width="4" height="12" rx="1.5"></rect>
            </g>
        </g>
    </g>
</svg>